HIERARCHY
ROOT root
{
	OFFSET	0	13.1	24.9
	CHANNELS 6  Xposition Yposition Zposition Xrotation Yrotation Zrotation
	JOINT spine_1
	{
		OFFSET	0	9.99999	0
		CHANNELS 3  Xrotation Yrotation Zrotation
		JOINT spine_2
		{
			OFFSET	0	112	-10
			CHANNELS 3  Xrotation Yrotation Zrotation
			JOINT spine_3
			{
				OFFSET	0	206.5	19.3
				CHANNELS 3  Xrotation Yrotation Zrotation
				JOINT spine_4
				{
					OFFSET	0	110.4	14.6
					CHANNELS 3  Xrotation Yrotation Zrotation
					JOINT neck_1
					{
						OFFSET	0	71.8	-50.3
						CHANNELS 3  Xrotation Yrotation Zrotation
						JOINT neck_2
						{
							OFFSET	0	86.2	-25.8
							CHANNELS 3  Xrotation Yrotation Zrotation
							JOINT head_ee
							{
								OFFSET	0	179.8	-8.7
								CHANNELS 3  Xrotation Yrotation Zrotation
								End Site
								{
									OFFSET	1	0	0
								}
							}
						}
					}
					JOINT left_clavicle
					{
						OFFSET	-43.2	22.4	-70.8
						CHANNELS 3  Xrotation Yrotation Zrotation
						JOINT left_shoulder
						{
							OFFSET	-93.9	-5.79999	48.7
							CHANNELS 3  Xrotation Yrotation Zrotation
							JOINT left_elbow
							{
								OFFSET	-291.4	-30.8	15.2
								CHANNELS 3  Xrotation Yrotation Zrotation
								JOINT left_lowarm_twist
								{
									OFFSET	-110.7	-3.89999	13.6
									CHANNELS 3  Xrotation Yrotation Zrotation
									JOINT left_hand
									{
										OFFSET	-110.7	-3.89999	13.6
										CHANNELS 3  Xrotation Yrotation Zrotation
										JOINT left_ee
										{
											OFFSET	-80.8	-5.10001	12.1
											CHANNELS 3  Xrotation Yrotation Zrotation
											End Site
											{
												OFFSET	1	0	0
											}
										}
									}
								}
							}
						}
					}
					JOINT right_clavicle
					{
						OFFSET	43.2	22.4	-70.8
						CHANNELS 3  Xrotation Yrotation Zrotation
						JOINT right_shoulder
						{
							OFFSET	93.9	-5.79999	48.7
							CHANNELS 3  Xrotation Yrotation Zrotation
							JOINT right_elbow
							{
								OFFSET	291.4	-30.8	15.2
								CHANNELS 3  Xrotation Yrotation Zrotation
								JOINT right_lowarm_twist
								{
									OFFSET	110.7	-3.89999	13.6
									CHANNELS 3  Xrotation Yrotation Zrotation
									JOINT right_hand
									{
										OFFSET	110.7	-3.89999	13.6
										CHANNELS 3  Xrotation Yrotation Zrotation
										JOINT right_ee
										{
											OFFSET	80.8	-5.10001	12.1
											CHANNELS 3  Xrotation Yrotation Zrotation
											End Site
											{
												OFFSET	1	0	0
											}
										}
									}
								}
							}
						}
					}
				}
			}
		}
	}
	JOINT left_hip
	{
		OFFSET	-82.8	-127.5	0.300001
		CHANNELS 3  Xrotation Yrotation Zrotation
		JOINT left_knee
		{
			OFFSET	-28.2	-396.7	2.2
			CHANNELS 3  Xrotation Yrotation Zrotation
			JOINT left_ankle
			{
				OFFSET	-11.7	-411.3	35.4
				CHANNELS 3  Xrotation Yrotation Zrotation
				JOINT left_toes
				{
					OFFSET	0	-60	-88.6
					CHANNELS 3  Xrotation Yrotation Zrotation
					JOINT left_foot_ee
					{
						OFFSET	-22.5	-16.5	-42.2
						CHANNELS 3  Xrotation Yrotation Zrotation
						End Site
						{
							OFFSET	1	0	0
						}
					}
				}
			}
		}
	}
	JOINT right_hip
	{
		OFFSET	82.8	-127.5	0.300001
		CHANNELS 3  Xrotation Yrotation Zrotation
		JOINT right_knee
		{
			OFFSET	28.2	-396.7	2.2
			CHANNELS 3  Xrotation Yrotation Zrotation
			JOINT right_ankle
			{
				OFFSET	11.7	-411.3	35.4
				CHANNELS 3  Xrotation Yrotation Zrotation
				JOINT right_toes
				{
					OFFSET	0	-60	-88.6
					CHANNELS 3  Xrotation Yrotation Zrotation
					JOINT right_foot_ee
					{
						OFFSET	22.5	-16.5	-42.2
						CHANNELS 3  Xrotation Yrotation Zrotation
						End Site
						{
							OFFSET	1	0	0
						}
					}
				}
			}
		}
	}
}
MOTION
Frames: 10
Frame Time: 0.02
2514.9439058 746.994 -1509.62850944 3.6693334476 73.0619801997 -5.54265406874 0.536353 0.229762 0.560059 0.536507 0.193659 0.573544 0.538544 0.0744447 0.600761 0.538079 0.168388 0.581465 -9.95431 20.1321 6.69699 -10.2425 33.5247 11.689 -0.0 0.0 -0.0 3.90843 23.3879 8.09049 -31.0588 -15.5846 61.7757 1.10249 -28.6399 0.281437 -48.5736 -3.90556 4.60623 0.011432 13.1551 5.4824 -0.0 0.0 -0.0 12.3355 19.6409 -24.7309 -16.9555 31.7272 -62.7799 0.690707 18.8887 -0.114897 84.927 4.41778 8.86276 0.55698 -27.861 -14.0689 0.0 0.0 0.0 10.5449 32.8212 -12.5521 -42.2645 -0.61708 6.31234 30.4325 -31.8605 -4.98015 3.06743 -0.0 -0.0 -0.0 0.0 -0.0 3.48421 5.7671 -1.06671 -11.3526 -0.29846 -1.71384 22.265 30.3257 3.77354 -13.3058 0.0 0.0 0.0 0.0 0.0 
2515.29803667 744.48 -1514.25636914 2.62273617964 72.1012321217 -4.40198629709 0.580701 0.315945 0.715034 0.580945 0.269806 0.733688 0.584561 0.117482 0.772845 0.583807 0.238061 0.744594 -10.5753 19.3305 7.78155 -10.8277 31.4321 12.6601 -0.0 0.0 -0.0 3.61307 23.559 7.68061 -31.3559 -15.0219 61.9259 1.15832 -29.8461 0.308715 -48.8028 -3.93214 4.61882 -0.0539825 15.3596 5.94627 -0.0 0.0 -0.0 12.8195 22.4648 -25.6267 -16.788 32.4315 -63.1485 0.692353 18.9305 -0.11543 84.6257 4.38176 8.84873 0.32913 -28.194 -12.8955 0.0 0.0 0.0 10.1876 31.4818 -12.1586 -32.9894 -0.081997 4.99281 32.6398 -28.9689 -5.06341 2.41829 -0.0 -0.0 -0.0 0.0 -0.0 3.9621 6.44128 -1.37671 -12.0968 -0.306086 -1.82776 23.5415 30.3033 3.95698 -13.5335 0.0 0.0 0.0 0.0 0.0 
2507.05616066 741.69 -1508.34143152 3.80875947172 73.4819370469 -5.30137485951 0.484832 0.286192 0.624674 0.485015 0.245863 0.641618 0.4879 0.111308 0.678035 0.487324 0.216991 0.651948 -10.7401 18.8588 7.09055 -11.0298 31.0283 11.9251 -0.0 0.0 -0.0 3.1288 23.878 7.01721 -31.0027 -15.7825 62.6138 1.18063 -30.3202 0.319899 -48.8648 -3.93935 4.62222 -0.0383348 14.8844 5.85594 -0.0 0.0 -0.0 12.6309 21.1809 -25.299 -16.3901 31.4178 -63.1798 0.674091 18.4655 -0.109576 85.0567 4.43331 8.86874 0.502339 -27.98 -13.7984 0.0 0.0 0.0 11.3597 33.6995 -13.0685 -25.4446 0.191425 3.86803 32.048 -26.3854 -4.84784 2.36505 -0.0 -0.0 -0.0 0.0 -0.0 3.42644 5.45451 -1.44332 -12.3781 -0.308583 -1.87086 24.7024 29.6293 4.08556 -13.965 0.0 0.0 0.0 0.0 0.0 
2504.81799915 740.943 -1507.24696387 3.49173012749 74.2268978137 -5.09055573059 0.495673 0.155504 0.835609 0.496055 0.102019 0.84381 0.49772 -0.0702544 0.847046 0.496724 0.0643976 0.847512 -10.1875 18.7688 6.52509 -10.4424 31.0996 11.2072 -0.0 0.0 -0.0 3.37617 23.4013 7.35152 -31.6475 -15.3406 62.2911 1.16629 -30.0159 0.31269 -48.7732 -3.92871 4.61721 0.106726 15.9015 7.15589 -0.0 0.0 -0.0 13.0782 21.0609 -26.3475 -16.5221 31.1584 -63.3302 0.635173 17.4661 -0.0975711 85.209 4.45157 8.87572 0.646978 -27.1365 -14.3515 0.0 0.0 0.0 11.6365 33.6828 -12.1297 -17.7537 0.315613 2.6953 29.8186 -23.1476 -4.43231 1.916 -0.0 -0.0 -0.0 0.0 -0.0 3.1667 6.16165 -1.40543 -11.8998 -0.304211 -1.7976 24.0768 29.28 3.98048 -14.182 0.0 0.0 0.0 0.0 0.0 
2502.72620845 741.782 -1507.08148499 2.1852134888 74.0423345653 -3.59302095238 0.448804 0.174716 0.752042 0.44911 0.126509 0.761635 0.450937 -0.0303216 0.771474 0.450119 0.0918951 0.766581 -10.2788 18.7259 6.94969 -10.5169 30.7571 11.6199 -0.0 0.0 -0.0 3.3525 23.5142 7.31997 -31.4008 -15.5063 62.5092 1.17855 -30.2761 0.318847 -48.6924 -3.91934 4.61277 0.0592123 16.2033 6.97823 -0.0 0.0 -0.0 13.3259 21.5881 -26.8823 -16.6758 30.6958 -62.8673 0.614534 16.9315 -0.0914683 85.2945 4.46183 8.87962 0.731353 -27.7803 -15.0326 0.0 0.0 0.0 11.9159 32.0914 -11.7541 -16.4646 0.320979 2.49759 28.6588 -23.2321 -4.2973 1.70578 -0.0 -0.0 -0.0 0.0 -0.0 3.78051 5.11742 -1.56597 -12.623 -0.310585 -1.90838 23.5687 29.9566 3.94302 -14.087 0.0 0.0 0.0 0.0 0.0 
2501.29013102 741.121 -1509.58578589 -0.875442271251 73.4104160323 -0.111879140501 0.593031 0.242912 0.726084 0.593303 0.196218 0.740068 0.595982 0.044252 0.764357 0.595204 0.164409 0.747778 -9.14271 19.1652 6.83259 -9.27776 31.3907 11.3031 -0.0 0.0 -0.0 3.33539 23.6096 7.29741 -31.0406 -15.7667 62.8331 1.17313 -30.1613 0.31612 -48.5662 -3.90471 4.60582 0.0943686 16.5377 7.32479 -0.0 0.0 -0.0 13.304 20.5369 -26.9155 -16.9532 30.7988 -62.5796 0.603817 16.6528 -0.0883721 85.243 4.45564 8.87727 0.741826 -27.7908 -15.0954 0.0 0.0 0.0 12.0653 32.6238 -11.8878 -13.9473 0.31863 2.1114 28.1048 -21.7148 -4.16916 1.75807 -0.0 -0.0 -0.0 0.0 -0.0 4.47765 4.49678 -2.11362 -12.0662 -0.305801 -1.82308 23.7979 28.1423 3.88631 -14.1272 0.0 0.0 0.0 0.0 0.0 
2501.41796332 741.121 -1510.63955439 -0.865232435631 73.2089063833 -0.122538008463 0.593031 0.242912 0.726084 0.593303 0.196218 0.740068 0.595982 0.044252 0.764357 0.595204 0.164409 0.747778 -9.14271 19.1652 6.83259 -9.27776 31.3907 11.3031 -0.0 0.0 -0.0 3.33539 23.6096 7.29741 -31.0406 -15.7667 62.8331 1.17313 -30.1613 0.31612 -48.5662 -3.90471 4.60582 0.0943686 16.5377 7.32479 -0.0 0.0 -0.0 13.304 20.5369 -26.9155 -16.9532 30.7988 -62.5796 0.603817 16.6528 -0.0883721 85.243 4.45564 8.87727 0.741826 -27.7908 -15.0954 0.0 0.0 0.0 12.0653 32.6238 -11.8878 -13.9473 0.31863 2.1114 28.1048 -21.7148 -4.16916 1.75807 -0.0 -0.0 -0.0 0.0 -0.0 4.47765 4.49678 -2.11362 -12.0662 -0.305801 -1.82308 23.7979 28.1423 3.88631 -14.1272 0.0 0.0 0.0 0.0 0.0 
2496.55985956 740.248 -1507.79154916 -1.06600156348 72.4040438495 0.148581682955 0.616731 0.169779 0.574183 0.616904 0.132899 0.583822 0.618343 0.0136887 0.5986 0.617859 0.108053 0.588927 -10.0428 18.9404 7.25213 -10.2467 30.9058 11.8968 -0.0 0.0 -0.0 2.18801 23.2827 5.70515 -29.6423 -17.2651 65.3482 1.16065 -29.8957 0.309873 -47.9557 -3.83415 4.57173 0.56424 16.5296 10.2371 -0.0 0.0 -0.0 13.1946 18.9134 -26.7725 -17.2037 30.8758 -62.1208 0.635856 17.4837 -0.0977762 84.6688 4.3869 8.85074 0.749694 -23.3799 -13.7443 0.0 0.0 0.0 10.1555 33.8441 -10.9828 -10.4214 0.286834 1.57143 25.2663 -22.1655 -3.83307 3.62028 -0.0 -0.0 -0.0 0.0 -0.0 4.5003 6.33428 -2.56457 -12.1229 -0.306326 -1.83176 24.5763 25.3134 3.86642 -14.8603 0.0 0.0 0.0 0.0 0.0 
2493.74030063 736.785 -1506.41844114 -0.203978489625 72.4463025351 -0.365429606532 0.593107 0.161988 0.413687 0.593193 0.135336 0.423156 0.594243 0.0479616 0.441675 0.593989 0.117113 0.428557 -10.2986 19.2248 7.15898 -10.5528 31.5734 11.9657 -0.0 0.0 -0.0 1.40999 22.7413 4.59566 -28.5424 -18.2152 66.7623 1.17473 -30.1952 0.316923 -47.5791 -3.79082 4.55033 0.772242 16.3046 11.4571 -0.0 0.0 -0.0 13.0508 19.752 -26.3814 -18.2087 32.3711 -61.5042 0.615659 16.9607 -0.0917961 83.8822 4.29318 8.81329 0.671595 -23.3892 -13.2837 0.0 0.0 0.0 9.59945 34.702 -11.1224 -9.34679 0.270541 1.40734 24.8143 -24.3567 -3.8586 5.79805 -0.0 -0.0 -0.0 0.0 -0.0 4.67268 6.81724 -2.72034 -13.8926 -0.318391 -2.10301 27.1911 24.7347 4.18059 -15.3738 0.0 0.0 0.0 0.0 0.0 
2490.42004259 737.051 -1505.52366667 -0.546769512442 70.8566285597 0.309853356052 0.603508 0.13023 0.339155 0.603566 0.108385 0.346755 0.604255 0.0368992 0.36142 0.604085 0.0935153 0.351057 -11.2712 19.6169 7.77365 -11.6291 32.1608 12.9527 -0.0 0.0 -0.0 0.944605 23.0788 3.97581 -26.795 -19.1078 68.6023 1.14611 -29.5848 0.302662 -47.2554 -3.75369 4.53172 0.990966 16.1718 12.7879 -0.0 0.0 -0.0 12.8843 18.1297 -26.0959 -19.2865 33.3221 -60.5174 0.640623 17.6067 -0.099213 83.4269 4.23917 8.79102 0.904146 -22.1392 -14.2648 0.0 0.0 0.0 9.2766 35.9719 -10.806 -8.7341 0.259875 1.31393 23.71 -22.9071 -3.65769 7.84437 -0.0 -0.0 -0.0 0.0 -0.0 4.92115 6.02863 -2.87418 -14.9123 -0.321536 -2.25943 27.2493 22.9691 4.11375 -16.8382 0.0 0.0 0.0 0.0 0.0 
